PathFileType	4	(X/Y/Z)	Run_500 03
DataRate	CameraRate	NumFrames	NumMarkers	Units	OrigDataRate	OrigDataStartFrame	OrigNumFrames
100	100	4	45	mm	100	145	137
Frame#	Time	RASI			LPSI			RPSI			RTH1			RTH2			RTH3			LTH1			LTH2			LTH3			RTB1			RTB2			RTB3			RLMAL			RMMAL			LTB1			LTB2			LTB3			RCAL			RTOE			RMT5			LCAL			LTOE			LMT5			LACR			RACR			CLAV			C7			LPSH			RUA1			RUA2			RUA3			RLEL			RMEL			LUA1			LUA2			LUA3			LLEL			LMEL			RFAsuperior			RFAradius			RFAulna			LFAsuperior			LFAradius			LFAulna			LASI			
		X1	Y1	Z1	X2	Y2	Z2	X3	Y3	Z3	X4	Y4	Z4	X5	Y5	Z5	X6	Y6	Z6	X7	Y7	Z7	X8	Y8	Z8	X9	Y9	Z9	X10	Y10	Z10	X11	Y11	Z11	X12	Y12	Z12	X13	Y13	Z13	X14	Y14	Z14	X15	Y15	Z15	X16	Y16	Z16	X17	Y17	Z17	X18	Y18	Z18	X19	Y19	Z19	X20	Y20	Z20	X21	Y21	Z21	X22	Y22	Z22	X23	Y23	Z23	X24	Y24	Z24	X25	Y25	Z25	X26	Y26	Z26	X27	Y27	Z27	X28	Y28	Z28	X29	Y29	Z29	X30	Y30	Z30	X31	Y31	Z31	X32	Y32	Z32	X33	Y33	Z33	X34	Y34	Z34	X35	Y35	Z35	X36	Y36	Z36	X37	Y37	Z37	X38	Y38	Z38	X39	Y39	Z39	X40	Y40	Z40	X41	Y41	Z41	X42	Y42	Z42	X43	Y43	Z43	X44	Y44	Z44	X45	Y45	Z45	

138	1.7	911.501698	1034.293645	-223.855989	750.195433	1088.231773	-393.328252	749.010295	1088.525959	-304.502977	778.603058	788.5118649999999	-185.78781	839.486536	708.518678	-217.141519	753.131863	619.787093	-225.972286	879.131537	832.918135	-504.868885	1010.866527	784.0813450000001	-499.507388	1018.415582	680.840065	-489.229451	714.186879	375.847756	-295.20391	647.572927	343.97297	-259.355418	601.197263	230.866871	-314.467919	504.838562	157.368467	-307.509015	536.364319	171.57309	-386.623442	1004.426958	503.942372	-449.585792	872.731797	531.9170329999999	-474.402199	824.35018	432.773472	-440.210849	438.590709	156.062842	-376.947036	630.701923	60.980936	-345.139779	559.492597	59.605195	-278.361688	641.78174	447.970901	-390.618449	738.084429	249.414136	-430.96189	691.222224	297.553807	-493.586028	889.922628	1559.058245	-488.346728	939.540608	1514.552355	-179.188279	985.128315	1460.826615	-325.905972	875.474924	1562.208748	-325.589533	803.702368	1532.921752	-484.628501	891.671394	1368.113961	-87.051292	804.885458	1328.181669	-85.198437	812.241854	1272.360445	-44.331492	822.698912	1208.978748	-21.970692	777.6052110000001	1195.161762	-101.76727	774.416615	1475.278692	-554.909549	695.530048	1420.103494	-541.833713	688.303058	1387.073716	-609.742439	663.1580740000001	1318.772098	-643.526891	636.3068	1302.893368	-557.566688	877.570607	1166.853566	-58.12335	1031.492682	1231.785042	-166.316353	1038.269068	1165.082119	-151.970553	717.92188	1242.987472	-617.985937	880.569448	1245.259435	-555.32074	866.728152	1183.301969	-580.557357	914.559441	1033.566023	-456.995491	
139	1.71	916.039282	1039.809146	-225.409239	753.989649	1096.415807	-392.506296	753.455836	1094.956662	-303.146627	769.583589	795.823943	-186.81127	825.024763	713.2343519999999	-219.447697	731.60727	630.203262	-225.166	886.811965	845.034234	-506.255357	1018.700278	799.622622	-497.946178	1028.6392	696.228308	-487.84809	679.789593	386.79948	-291.362012	611.96603	357.547261	-255.425378	565.299003	243.474746	-309.692974	467.973196	169.901361	-303.384384	500.912515	182.579812	-381.474792	1026.110772	511.951606	-448.441727	891.88815	525.5745460000001	-472.51654	854.722245	421.20459	-439.515429	404.289382	176.657527	-372.917768	578.68489	60.825074	-345.421133	510.992689	61.618403	-277.739008	671.826099	415.682139	-389.0107	789.32307	229.714041	-434.180596	736.863777	273.551764	-495.647538	883.805987	1566.840527	-488.610748	942.08898	1524.033257	-181.510936	985.295946	1470.592024	-328.96521	875.245236	1570.07574	-326.430321	798.2225979999999	1540.708485	-481.280595	897.476532	1377.953195	-87.838171	811.362073	1337.403104	-84.14827200000001	820.094566	1281.731797	-43.377082	831.63587	1218.015064	-21.311473	783.030475	1204.536864	-100.002181	765.459989	1485.298723	-549.209015	687.5986	1430.262109	-531.836813	675.38129	1399.580284	-600.1879719999999	648.215153	1330.973573	-633.690839	625.85164	1314.992729	-546.339679	885.801866	1178.220252	-60.963963	1032.267809	1249.746684	-175.071914	1041.811973	1183.348736	-161.250203	703.954699	1255.269529	-610.377493	869.5173579999999	1257.78512	-555.237615	854.560203	1195.476303	-579.007837	918.725851	1043.418331	-454.757752	
140	1.72	921.192235	1044.970838	-227.307622	758.4055540000001	1104.600787	-391.247945	758.633861	1101.151493	-301.480145	762.144077	803.69467	-187.366894	811.451283	718.875076	-220.991431	711.839609	642.316157	-223.920581	894.23307	857.13642	-507.985944	1025.499077	813.487332	-496.488441	1036.744298	709.497257	-486.560182	647.89732	400.024708	-285.99181	578.622922	372.974023	-250.021498	533.447012	256.66878	-303.950251	435.726671	182.598101	-298.785432	471.286973	193.471657	-375.335668	1045.96007	518.48738	-447.043172	910.960508	517.622031	-470.563895	885.498999	409.046534	-438.574377	376.653163	198.031769	-368.812718	530.3819099999999	61.884624	-345.417411	465.074715	65.497896	-277.366883	704.596098	383.27162	-387.99737	841.604662	211.623798	-435.569751	784.347405	250.069534	-496.580746	878.65716	1574.332915	-488.837678	944.5064630000001	1533.515465	-183.963121	985.295856	1480.143571	-331.770334	874.997767	1577.729078	-327.590891	793.602338	1548.492616	-478.011534	902.202366	1388.190881	-88.697958	816.640407	1346.871737	-84.61307100000001	826.252917	1291.75872	-43.185058	839.185968	1227.455419	-21.110883	787.546051	1214.144802	-98.68419	757.768697	1495.39479	-543.445695	681.334773	1440.548541	-521.871442	664.1347929999999	1411.919313	-590.031892	634.502712	1343.043999	-622.7641620000001	616.763569	1327.157355	-534.190816	892.5003	1189.6742	-63.914646	1031.933002	1266.832519	-183.222795	1043.863119	1200.791676	-169.813113	691.018689	1267.220458	-601.4834070000001	859.32723	1269.777619	-554.578582	843.083427	1207.071547	-576.555178	922.652868	1053.743705	-452.981969	
141	1.73	926.489098	1049.552543	-229.521044	763.137646	1112.367112	-389.781278	763.938509	1107.011712	-299.783318	755.847634	812.079973	-187.559602	799.0192510000001	725.403304	-221.425615	694.229296	655.557333	-222.608293	900.715091	868.78678	-509.618425	1031.036526	825.117735	-495.197634	1042.793919	720.100238	-485.302493	619.827354	414.78395	-280.005729	548.9929969999999	389.668041	-244.18194	505.549435	270.640772	-298.125784	407.726281	196.634305	-294.168455	446.320425	205.44764	-368.988478	1064.150629	523.41652	-445.747554	930.070441	508.07246	-469.022657	916.708443	396.504235	-437.555836	355.045027	220.63196	-364.485881	487.338548	64.1613	-344.100331	422.792368	73.463548	-277.163472	739.76054	351.248779	-387.980043	894.605817	195.205029	-434.697472	833.799538	227.276435	-496.265221	874.644693	1581.195245	-488.873403	946.704234	1542.368693	-186.57796	985.216005	1488.711193	-334.290742	874.800671	1584.835266	-328.852778	790.06664	1556.006365	-474.826068	906.04191	1398.436286	-89.666726	820.930173	1356.344602	-85.700771	831.0855	1301.847312	-43.380149	845.501873	1236.825484	-21.171573	791.236098	1223.569891	-97.64722500000001	751.533099	1505.261804	-538.082399	676.649244	1450.962733	-512.474972	654.824292	1423.585172	-579.658602	622.196102	1354.685021	-610.955333	609.099335	1339.122968	-521.5658519999999	897.928161	1200.693257	-66.625725	1030.830753	1282.630155	-190.575492	1044.748377	1216.897543	-177.709087	679.295086	1278.539433	-591.814183	850.027573	1280.870618	-553.599426	832.421518	1217.788114	-573.4033460000001	926.066717	1063.73767	-452.407628	
